<svg width="21" height="20" viewBox="0 0 21 20" fill="none" xmlns="http://www.w3.org/2000/svg">
<path d="M18.6667 0H2.33333C1.03833 0 0 0.857143 0 1.90476V15.2381C0 16.2857 1.03833 17.1429 2.33333 17.1429H7L10.5 20L14 17.1429H18.6667C19.95 17.1429 21 16.2857 21 15.2381V1.90476C21 0.857143 19.95 0 18.6667 0ZM11.6667 15.2381H9.33333V13.3333H11.6667V15.2381ZM14.0817 7.85714L13.0316 8.73338C12.1916 9.42861 11.6667 10 11.6667 11.4286H9.33333V10.9524C9.33333 9.90476 9.85824 8.95242 10.6982 8.25718L12.1449 7.05718C12.5766 6.71432 12.8333 6.2381 12.8333 5.71429C12.8333 4.66667 11.7833 3.80952 10.5 3.80952C9.21667 3.80952 8.16667 4.66667 8.16667 5.71429H5.83333C5.83333 3.60952 7.92167 1.90476 10.5 1.90476C13.0783 1.90476 15.1667 3.60952 15.1667 5.71429C15.1667 6.55238 14.7467 7.31429 14.0817 7.85714Z" fill="#323232"/>
</svg>
