<svg width="19" height="18" viewBox="0 0 19 18" fill="none" xmlns="http://www.w3.org/2000/svg">
<path d="M12.6212 6.867C12.4528 4.356 11.3954 1.908 9.41199 0C7.40985 1.926 6.30559 4.374 6.0904 6.867C7.28795 7.479 8.39215 8.27101 9.3558 9.23401C10.3194 8.28001 11.4236 7.488 12.6212 6.867ZM6.53992 9.25203C6.40894 9.16203 6.25907 9.08099 6.11873 8.99099C6.25907 9.08999 6.40894 9.16203 6.53992 9.25203ZM12.5463 9.02703C12.4246 9.10803 12.2933 9.17103 12.1717 9.26103C12.2933 9.17103 12.4246 9.10803 12.5463 9.02703ZM9.3558 12.105C7.3443 9.15296 3.91072 7.2 0 7.2C0 11.988 3.14335 16.038 7.5125 17.541C8.10192 17.748 8.7196 17.901 9.3558 18C9.99199 17.892 10.6003 17.739 11.1991 17.541C15.5682 16.038 18.7116 11.988 18.7116 7.2C14.8009 7.2 11.3673 9.15296 9.3558 12.105Z" fill="#323232"/>
</svg>
