<svg width="32" height="34" viewBox="0 0 32 34" fill="none" xmlns="http://www.w3.org/2000/svg">
<path d="M15.576 0C6.98751 0 0 7.50643 0 16.7328C0 25.9592 6.98751 33.4656 15.576 33.4656C24.1646 33.4656 31.1521 25.9592 31.1521 16.7328C31.1521 7.50643 24.1646 0 15.576 0ZM15.576 27.0299C14.011 27.0299 12.7664 26.3172 12.5994 24.8112C12.595 24.7662 12.5994 24.7207 12.6125 24.6777C12.6255 24.6346 12.6469 24.595 12.6752 24.5615C12.7034 24.5279 12.738 24.5012 12.7765 24.4829C12.8151 24.4647 12.8568 24.4554 12.8989 24.4556H18.2494C18.292 24.4553 18.3341 24.4647 18.373 24.4832C18.4119 24.5018 18.4467 24.529 18.475 24.5631C18.5034 24.5972 18.5246 24.6374 18.5374 24.681C18.5501 24.7246 18.5541 24.7706 18.549 24.816C18.358 26.2938 17.1247 27.0299 15.576 27.0299ZM22.9148 23.1685H8.23733C7.3507 23.1685 6.88941 21.9618 7.39937 21.3182C8.62224 19.7624 9.48641 19.1084 9.48641 14.8182C9.48641 10.8868 11.4139 9.49184 13.006 8.81126C13.1156 8.76221 13.2143 8.68906 13.296 8.5965C13.3776 8.50395 13.4403 8.39405 13.48 8.27389C13.7563 7.28842 14.5381 6.43569 15.576 6.43569C16.614 6.43569 17.3943 7.28842 17.6728 8.27469C17.7128 8.39483 17.7756 8.50469 17.8574 8.59723C17.9391 8.68976 18.038 8.76294 18.1476 8.81207C19.7359 9.49103 21.6672 10.8884 21.6672 14.819C21.6672 19.1092 22.5306 19.7632 23.7535 21.319C24.2582 21.9618 23.7962 23.1685 22.9148 23.1685Z" fill="#3683F0"/>
</svg>
